<svg width="14" height="14" viewBox="0 0 14 14" version="1.1" xmlns="http://www.w3.org/2000/svg" xmlns:xlink="http://www.w3.org/1999/xlink">
<title>viber-c7e034d1e5fc0b41f77f1d2085d7f21a</title>
<desc>Created using Figma</desc>
<g id="Canvas" transform="translate(-492 -4826)">
<g id="viber-c7e034d1e5fc0b41f77f1d2085d7f21a">
<g id="ic_viber">
<use xlink:href="#path0_fill" transform="translate(492 4826)" fill="#5A5A5A"/>
</g>
</g>
</g>
<defs>
<path id="path0_fill" fill-rule="evenodd" d="M 13.8688 6.37158C 13.9097 3.12744 11.0248 0.120117 7.67432 0.00927734C 7.61493 0.0175781 7.54059 0.0126953 7.46118 0.00732422C 7.20264 -0.00976562 6.89062 -0.03125 6.86591 0.394043C 6.84833 0.693848 7.1275 0.713867 7.38782 0.732422L 7.4657 0.738281C 7.50305 0.741699 7.53931 0.745117 7.57343 0.750488C 11.0615 1.27637 12.6702 2.90234 13.1145 6.34668C 13.1235 6.41602 13.1248 6.49316 13.126 6.57129C 13.1306 6.85107 13.1354 7.14551 13.4977 7.15234C 13.9022 7.16016 13.8871 6.83154 13.8735 6.5376L 13.8696 6.44434L 13.8688 6.37158ZM 11.0295 13.9644L 11.1075 13.9819L 11.1822 14C 12.2686 14.0107 13.541 12.9849 13.9087 11.9663C 14.2197 11.1055 13.6795 10.7002 13.1426 10.2979C 13.0687 10.2427 12.9949 10.1875 12.9233 10.1309C 12.826 10.0542 12.7273 9.979 12.6275 9.90527C 12.2803 9.64893 11.9202 9.40869 11.5644 9.16406C 10.6506 8.53467 9.815 8.48584 9.13336 9.49756C 8.75067 10.0659 8.21497 10.0908 7.65442 9.84131C 6.1095 9.15479 4.91681 8.09668 4.21808 6.55762C 3.90906 5.87646 3.91296 5.26611 4.63654 4.78418C 5.01929 4.5293 5.40485 4.22803 5.37408 3.67139C 5.33368 2.9458 3.53644 0.520508 2.8266 0.26416C 2.5329 0.158691 2.24017 0.165527 1.94159 0.263672C 0.277344 0.8125 -0.412354 2.1543 0.248108 3.74365C 2.21741 8.48389 5.68384 11.7842 10.455 13.7983C 10.5678 13.8462 10.6857 13.8818 10.7961 13.9102C 10.8802 13.9316 10.9599 13.9492 11.0295 13.9644ZM 12.1489 5.79004C 12.1409 5.84814 12.1433 5.91602 12.1458 5.98682C 12.1534 6.20605 12.1619 6.44971 11.8655 6.49414C 11.4409 6.55762 11.4228 6.26465 11.4057 5.98877C 11.4014 5.92041 11.3972 5.85303 11.387 5.79248C 11.0325 3.69727 10.2822 2.92871 8.12787 2.45654C 8.06744 2.44336 8.00061 2.43457 7.93256 2.42529C 7.64337 2.38623 7.33246 2.34424 7.39886 1.95654C 7.46521 1.56934 7.79437 1.62256 8.09729 1.6709C 8.15137 1.67969 8.20465 1.68848 8.25543 1.69434C 10.408 1.94775 12.1662 3.77881 12.1489 5.79004ZM 10.1723 5.99121C 10.4927 5.9541 10.5217 5.67432 10.5116 5.40869C 10.5273 4.43848 9.40839 3.31641 8.45325 3.33984C 8.22937 3.34521 8.00995 3.36865 7.92737 3.60352C 7.80396 3.9541 8.06378 4.0376 8.32849 4.07959C 9.21246 4.21875 9.67725 4.72949 9.7655 5.59326C 9.78955 5.82812 9.94122 6.01807 10.1723 5.99121Z"/>
</defs>
</svg>
