<svg width="18" height="23" viewBox="0 0 18 23" version="1.1" xmlns="http://www.w3.org/2000/svg" xmlns:xlink="http://www.w3.org/1999/xlink">
<title>android</title>
<desc>Created using Figma</desc>
<g id="Canvas" transform="translate(-692 -4362)">
<g id="android">
<g id="Fill-1">
<use xlink:href="#path0_fill" transform="translate(692 4362)" fill="#FFFFFF"/>
</g>
</g>
</g>
<defs>
<path id="path0_fill" fill-rule="evenodd" d="M 13.0511 0.0317383C 13.0948 0.0620117 13.1209 0.108887 13.1282 0.160645C 13.132 0.1875 13.1306 0.215332 13.124 0.243164C 13.1176 0.270508 13.1058 0.297852 13.0887 0.322754L 11.9493 1.99219C 13.7608 2.84326 14.8383 4.11328 15 6L 3 6C 3.1615 4.11328 4.29095 2.84326 6.10223 1.99219L 4.96301 0.322754C 4.89526 0.223633 4.91217 0.0932617 5.00043 0.0317383C 5.08887 -0.0297852 5.21533 0.000488281 5.28302 0.100098L 6.46655 1.83447C 7.24652 1.52441 8.11304 1.35156 9.02588 1.35156C 9.93872 1.35156 10.8052 1.52441 11.5852 1.83447L 12.7687 0.100098C 12.8094 0.0400391 12.8714 0.00537109 12.9336 0.000488281C 12.9748 -0.00244141 13.016 0.00732422 13.0511 0.0317383ZM 3 17C 3 17.6025 3.4939 18.0576 4.09088 18.0576L 4.90912 18.0576L 4.90912 21.3662C 4.90912 22.1514 5.37091 23 6.13635 23C 6.90198 23 7.36365 22.1514 7.36365 21.3662L 7.36365 18.0576L 10.6364 18.0576L 10.6364 21.3662C 10.6364 22.1514 11.0982 23 11.8636 23C 12.6293 23 13.0909 22.1514 13.0909 21.3662L 13.0909 18.0576L 13.9091 18.0576C 14.5063 18.0576 15 17.6025 15 17L 15 7L 3 7L 3 17ZM 0 8.70557C 0 7.93213 0.447754 7.30566 1 7.30566C 1.55225 7.30566 2 7.93213 2 8.70557L 2 14.1763C 2 14.9497 1.55225 15.5767 1 15.5767C 0.447754 15.5767 0 14.9497 0 14.1763L 0 8.70557ZM 16 8.70557C 16 7.93213 16.4478 7.30566 16.9999 7.30566C 17.5522 7.30566 18 7.93213 18 8.70557L 18 14.1763C 18 14.9497 17.5522 15.5767 16.9999 15.5767C 16.4478 15.5767 16 14.9497 16 14.1763L 16 8.70557ZM 6.42395 4.62402C 6.04718 4.62402 5.74164 4.31543 5.74164 3.93506C 5.74164 3.55469 6.04718 3.24609 6.42395 3.24609C 6.80109 3.24609 7.10645 3.55469 7.10645 3.93506C 7.10645 4.31543 6.80109 4.62402 6.42395 4.62402ZM 11.0306 3.93506C 11.0306 4.31543 11.3362 4.62402 11.713 4.62402C 12.0899 4.62402 12.3954 4.31543 12.3954 3.93506C 12.3954 3.55469 12.0899 3.24609 11.713 3.24609C 11.3362 3.24609 11.0306 3.55469 11.0306 3.93506Z"/>
</defs>
</svg>
