<svg width="28" height="28" viewBox="0 0 28 28" xmlns="http://www.w3.org/2000/svg">
    <g fill="none" fill-rule="evenodd">
        <path d="M0 10h28v16.005C28 27.107 27.1 28 26.009 28H1.99C.891 28 0 27.107 0 26.005V10z" fill="#93E5FF"/>
        <path d="M0 4.006C0 2.898.9 2 1.991 2H26.01C27.109 2 28 2.887 28 4.006V9H0V4.006zM14 20.5l-2.057 1.082c-.487.256-.806.022-.714-.519l.393-2.29-1.664-1.623c-.394-.384-.27-.76.273-.838l2.3-.335 1.028-2.084c.244-.493.64-.491.882 0l1.028 2.084 2.3.335c.545.079.666.455.273.838l-1.664 1.623.393 2.29c.093.542-.228.774-.714.519L14 20.5z" fill="#00C2FF"/>
        <rect fill="#00C2FF" x="5" width="3" height="4" rx="1"/>
        <rect fill="#00C2FF" x="20" width="3" height="4" rx="1"/>
    </g>
</svg>
