<svg width="30" height="29" viewBox="0 0 30 29" xmlns="http://www.w3.org/2000/svg">
    <g fill="#FFF" fill-rule="evenodd">
        <path d="M29.999 20L30 24.252C30 27.174 28.11 29 24.58 29H4.916C1.89 29 .001 27.174.001 24.252L0 20h.933c2.203 0 4.062-1.555 4.062-3.582v-3.836C4.995 10.555 3.136 9 .933 9H0V4.748C0 1.826 1.89 0 4.915 0H24.58C27.606 0 30 1.826 30 4.748V9h-.933c-2.202 0-4.06 1.555-4.06 3.582v3.57c0 2.027 1.859 3.848 4.06 3.848H30zm-7.01-7.437c0-3.645-3.137-6.563-6.96-6.563h-2.057c-3.823 0-6.96 2.92-6.96 6.563v6.79c0 3.642 3.137 6.647 6.96 6.647h2.057c3.823 0 6.96-3.005 6.96-6.648v-6.789z"/>
        <path d="M16.143 25h-2.297c-3.166 0-5.849-2.595-5.849-5.635V12.55c0-3.042 2.682-5.55 5.85-5.55h2.295c3.167 0 5.85 2.508 5.85 5.55v6.815c.002 3.04-2.682 5.635-5.85 5.635zm3.806-12.57c0-1.94-1.768-3.43-3.971-3.43H13.96c-2.202 0-3.97 1.49-3.97 3.43v4.14c0 1.94 1.768 3.43 3.97 3.43h2.018c2.203 0 3.971-1.49 3.971-3.43v-4.14z"/>
        <path d="M14.51 19h-.11c-2.03 0-3.41-1.074-3.41-3.172V14.54s-.007-.54.483-.54.49.54.49.54v1.288c0 1.56.945 2.195 2.437 2.195h.11s.479.023.479.498c-.002.474-.48.479-.48.479h.001z"/>
    </g>
</svg>
